<svg width="32" height="32" viewBox="0 0 32 32" fill="none" xmlns="http://www.w3.org/2000/svg">
<path d="M12 29.3333H20C26.6667 29.3333 29.3334 26.6667 29.3334 20V12C29.3334 5.33332 26.6667 2.66666 20 2.66666H12C5.33335 2.66666 2.66669 5.33332 2.66669 12V20C2.66669 26.6667 5.33335 29.3333 12 29.3333Z" stroke="#8B8D8C" stroke-width="2" stroke-linecap="round" stroke-linejoin="round"/>
<path d="M12 13.3333C13.4727 13.3333 14.6666 12.1394 14.6666 10.6667C14.6666 9.19391 13.4727 8 12 8C10.5272 8 9.33331 9.19391 9.33331 10.6667C9.33331 12.1394 10.5272 13.3333 12 13.3333Z" stroke="#8B8D8C" stroke-width="2" stroke-linecap="round" stroke-linejoin="round"/>
<path d="M3.56 25.2667L10.1333 20.8533C11.1867 20.1467 12.7067 20.2267 13.6533 21.04L14.0933 21.4267C15.1333 22.32 16.8133 22.32 17.8533 21.4267L23.4 16.6667C24.44 15.7733 26.12 15.7733 27.16 16.6667L29.3333 18.5333" stroke="#8B8D8C" stroke-width="2" stroke-linecap="round" stroke-linejoin="round"/>
</svg>
